<svg xmlns="http://www.w3.org/2000/svg" xmlns:xlink="http://www.w3.org/1999/xlink" id="&#x5716;&#x5C64;_1" x="0px" y="0px" viewBox="0 0 268.6 236.57" style="enable-background:new 0 0 268.6 236.57;" xml:space="preserve"><style type="text/css">	.st0{fill:#89AFC2;}</style><path class="st0" d="M47.56,178.3c0-5.01,0-9.59,0-14.47c4.97,0,9.92,0,15.1,0c0-49.78,0-99.25,0-149.08c-4.97,0-9.92,0-14.98,0 c0-5.08,0-9.8,0-14.7c31.35,0,62.62,0,94.15,0c0,4.52,0.01,8.93,0,13.33c-0.01,1.88-1.47,1.37-2.47,1.37 c-9.34,0.03-18.69,0.01-28.03,0.01c-0.56,0-1.13,0.04-1.69,0c-1.39-0.1-2.02,0.38-2.02,1.92c0.04,16.27,0.04,32.54,0.01,48.81 c0,1.32,0.42,1.98,1.77,1.94c0.56-0.02,1.13,0.01,1.69,0.01c22.71,0,45.43-0.01,68.14-0.01c0.96,0,1.91,0,3.03,0 c0-17.58,0-34.93,0-52.61c-5.16,0-10.33,0-15.64,0c0-5.13,0-9.91,0-14.82c15.46,0,30.81,0,46.62,0c0,3.19,0,6.37,0,9.55 c0,5.22,0,5.22-5.23,5.23c-2.9,0-5.8,0.08-8.7,0c-1.61-0.05-2.17,0.57-2.02,2.13c0.1,1.04,0,2.09,0,3.14 c-0.01,46.31-0.01,92.63-0.02,138.94c0,3.78,0,3.77,3.83,3.77c3.85-0.01,7.7,0,11.73,0c0,4.92,0,9.62,0,14.49 c-31.09,0-62.13,0-93.59,0c0-4.49-0.06-8.96,0.1-13.43c0.01-0.38,1.45-1.01,2.22-1.01c9.26-0.07,18.52-0.05,27.79-0.05 c3.19,0,3.21,0,3.21-3.21c0-15.95-0.02-31.9,0.02-47.84c0-1.75-0.31-2.55-2.38-2.54c-23.6,0.08-47.2,0.05-70.8,0.05 c-0.4,0-0.8,0-1.4,0c-0.07,0.68-0.2,1.29-0.2,1.9c-0.01,16.51,0.04,33.02-0.04,49.53c-0.01,2.37,0.5,3.25,3.06,3.11 c4.25-0.24,8.52-0.07,13.14-0.07c0,4.67,0.05,9.14-0.1,13.61c-0.01,0.36-1.49,0.94-2.29,0.94c-7.65,0.08-15.3,0.06-22.95,0.06 c-5.8,0-11.6,0-17.4,0C50.09,178.3,48.98,178.3,47.56,178.3z M77.79,14.78c0,1.32,0,2.28,0,3.24c0,24.48,0.04,48.97-0.04,73.45 c-0.01,2.33,0.64,2.93,2.95,2.92c27.87-0.08,55.73-0.03,83.6-0.1c2.19-0.01,2.88,0.57,2.87,2.82c-0.08,20.54-0.05,41.08-0.05,61.61 c0,0.89-0.15,1.81,0.08,2.64c0.14,0.53,0.83,1.29,1.29,1.3c4.56,0.1,9.13,0.06,13.76,0.06c0-26.95,0-53.62,0-80.47 c-1.07,0-1.95,0-2.82,0c-27.63,0.01-55.25,0.01-82.88,0.02c-3.5,0-3.5-0.01-3.5-3.59c0-19.73,0-39.47,0-59.2 c0-1.05,0.2-2.15-0.07-3.12c-0.17-0.62-1-1.51-1.55-1.52C87.02,14.73,82.6,14.78,77.79,14.78z"></path><g>	<g>		<path class="st0" d="M2.86,205.18h5.2v8.87h9.67v-8.87h5.2v22.74h-5.2v-9.84H8.06v9.84h-5.2V205.18z"></path>		<path class="st0" d="M37.11,205.18h5.2v8.87h9.67v-8.87h5.2v22.74h-5.2v-9.84H42.3v9.84h-5.2V205.18z"></path>		<path class="st0" d="M85.04,216.47c0,6.33-4.02,11.78-11.82,11.78c-7.54,0-11.49-5.19-11.49-11.7c0-6.62,4.36-11.7,11.83-11.7   C80.58,204.85,85.04,209.51,85.04,216.47z M67.09,216.45c0,4.44,2.06,7.8,6.32,7.8c4.62,0,6.26-3.66,6.26-7.72   c0-4.3-1.86-7.68-6.34-7.68C68.98,208.85,67.09,212.02,67.09,216.45z"></path>		<path class="st0" d="M94.39,209.21h-7.3v-4.03h19.78v4.03h-7.28v18.71h-5.2V209.21z"></path>		<path class="st0" d="M126.63,218.11h-11.5v5.78h12.68l-0.62,4.03h-17.11v-22.74h17.04v4.03h-12v4.87h11.5V218.11z"></path>		<path class="st0" d="M131.64,205.18h5.2v18.71h11.97l-0.59,4.03h-16.58V205.18z"></path>	</g></g><g>	<g>		<path class="st0" d="M177.29,226.86h-1.46c-0.09-0.56-0.2-2.63-0.17-3.67c-1.39,2.66-3.61,4.11-7.65,4.11   c-6.29,0-10.33-4.25-10.33-11.06c0-6.29,4.13-11.13,10.6-11.13c5.82,0,8.29,3,9.16,6.16h-1.88c-0.98-2.47-3.05-4.44-7.31-4.44   c-5.55,0-8.69,4.09-8.69,9.29c0,5.46,3.14,9.47,8.55,9.47c4.64,0,7.48-2.46,7.48-7.54v-0.79h-7.42v-1.75h9.13V226.86z"></path>		<path class="st0" d="M184.44,217.17v9.69h-1.77v-21.29h8.94c3.87,0,6.7,1.77,6.7,5.62c0,2.48-1.06,4.41-3.79,5.1   c1.6,0.42,3.25,1.6,3.25,5.27v0.87c0,1.72,0,3.6,0.23,4.44h-1.8c-0.28-0.92-0.2-2.73-0.2-4.27v-0.72c0-3.66-1.37-4.71-5.23-4.71   H184.44z M184.44,215.45h6.65c3.57,0,5.39-1.3,5.39-4.23c0-2.66-1.82-3.94-5.25-3.94h-6.79V215.45z"></path>		<path class="st0" d="M222.99,216.15c0,6.08-3.93,11.15-10.41,11.15c-6.33,0-10.48-4.92-10.48-11.18c0-5.93,4.19-11,10.49-11   C218.72,205.12,222.99,210.19,222.99,216.15z M203.98,216.04c0,4.87,3.03,9.55,8.6,9.55c5.41,0,8.52-4.13,8.52-9.37   c0-4.75-3.11-9.37-8.69-9.37C207.29,206.84,203.98,211.06,203.98,216.04z"></path>		<path class="st0" d="M229.26,205.57v12.14c0,6.14,3.57,7.88,6.95,7.88c4.27,0,6.74-2.18,6.74-7.88v-12.14h1.77v11.99   c0,7.17-3.43,9.75-8.6,9.75c-5.22,0-8.63-2.8-8.63-9.45v-12.29H229.26z"></path>		<path class="st0" d="M250.49,205.57h8.98c5.2,0,7.04,2.86,7.04,6.04c0,4.09-2.61,6.28-6.85,6.28h-7.4v8.98h-1.77V205.57z    M252.26,216.13h6.98c3.15,0,5.42-0.92,5.42-4.5c0-2.78-1.82-4.32-5.42-4.32h-6.98V216.13z"></path>	</g></g></svg>