<svg xmlns="http://www.w3.org/2000/svg" xmlns:xlink="http://www.w3.org/1999/xlink" id="&#x5716;&#x5C64;_1" x="0px" y="0px" viewBox="0 0 201.1 198.8" style="enable-background:new 0 0 201.1 198.8;" xml:space="preserve"><style type="text/css">	.st0{fill:#85AABC;}</style><g>	<path class="st0" d="M163.8,133.7c-0.9,0-1.8-0.3-2.5-1c-0.3-0.3-15.9-14.8-60.7-14.8c-44.9,0-60.5,14.6-60.7,14.8  c-1.4,1.4-3.7,1.4-5.1,0c-1.4-1.4-1.4-3.7,0-5.1c0.1-0.1,14.7-15.7,14.7-60.7c0-44.9-14.6-60.5-14.8-60.7c-1.4-1.4-1.4-3.7,0.1-5.1  c1.4-1.4,3.7-1.4,5.1,0c0.1,0.1,15.7,14.7,60.7,14.7c44.9,0,60.5-14.6,60.7-14.8c1.4-1.4,3.7-1.4,5.1,0c1.4,1.4,1.4,3.7,0,5.1  c-0.1,0.1-14.8,15.9-14.8,60.7c0,44.7,14.6,60.5,14.8,60.7c1.4,1.4,1.4,3.7-0.1,5.1C165.6,133.3,164.7,133.7,163.8,133.7z   M100.6,110.6c25.9,0,42.7,4.6,52.9,9c-4.4-10.2-9.1-27-9.1-52.8c0-25.8,4.6-42.7,9.1-52.8c-10.2,4.4-27,9-52.9,9  c-25.8,0-42.7-4.6-52.8-9c4.4,10.2,9,27,9,52.8c0,25.8-4.6,42.7-9,52.8C57.9,115.3,74.7,110.6,100.6,110.6z"></path>	<g>		<path class="st0" d="M48.3,195.5v-29.7c0-0.5-0.1-0.9-0.4-1.2c-0.2-0.3-0.7-0.5-1.3-0.7v-0.8h10.9v0.8c-0.6,0.2-1,0.4-1.3,0.6   c-0.2,0.3-0.4,0.7-0.4,1.2v29.7c0,0.5,0.1,0.9,0.4,1.2c0.3,0.3,0.7,0.5,1.3,0.7v0.8H46.7v-0.8c0.6-0.2,1-0.4,1.3-0.7   C48.2,196.4,48.3,196,48.3,195.5z"></path>		<path class="st0" d="M151.4,186.1l4.9,7.3l-0.7,0.5c-0.5-0.4-0.9-0.7-1.2-0.7c-0.3,0-1.2,0.4-2.6,1.2c-2.9,1.7-5.4,2.9-7.4,3.4   c-2,0.6-4.4,0.9-7.2,0.9c-5.5,0-10.1-1.3-13.6-3.9c-2.1-1.5-3.7-3.4-4.9-5.7c-1.4-2.6-2.1-5.4-2.1-8.6c0-4.2,1.2-7.9,3.7-11.1   c3.7-4.7,9.4-7.1,16.9-7.1c2.8,0,5.2,0.3,7.1,0.9c2,0.6,4.5,1.7,7.4,3.4c1.4,0.8,2.3,1.2,2.6,1.2c0.3,0,0.7-0.2,1.2-0.7l0.7,0.5   l-4.9,7.3l-0.7-0.5c0-0.3,0-0.5,0-0.7c0-0.5-0.2-1-0.6-1.4c-0.4-0.4-1.2-1-2.3-1.6c-3-1.7-6.2-2.6-9.6-2.6c-4,0-7.2,1-9.6,3   c-2.8,2.3-4.2,5.4-4.2,9.2c0,3.8,1.4,6.8,4.2,9.2c2.4,2,5.6,3,9.6,3c3.4,0,6.6-0.9,9.6-2.6c1.1-0.6,1.9-1.1,2.3-1.6   c0.4-0.4,0.6-0.9,0.6-1.4c0-0.2,0-0.4,0-0.7L151.4,186.1z"></path>		<path class="st0" d="M34.7,168.9c-0.7-1.4-1.6-2.6-2.8-3.4c-1.1-0.8-2.5-1.4-4-1.8c-1.5-0.3-3.5-0.5-6.1-0.5H9.3H0v0.8   c0.6,0.2,1,0.4,1.3,0.7c0.2,0.3,0.4,0.7,0.4,1.2v29.7c0,0.5-0.1,0.9-0.4,1.2C1,197,0.6,197.2,0,197.4v0.8h10.9v-0.8   c-0.6-0.2-1-0.4-1.3-0.7c-0.2-0.3-0.4-0.7-0.4-1.2V192v-6.3h12.6c3.2,0,5.8-0.3,7.6-1c1.8-0.6,3.3-1.7,4.4-3.2   c1.3-1.8,1.9-4.7,1.9-7.1C35.7,172.8,35.4,170.3,34.7,168.9z M27.3,177.6c-0.4,0.7-0.9,1.2-1.5,1.6c-0.9,0.5-2.6,0.7-4.9,0.7H9.3   v-1.8v-9.3H21c2.3,0,4,0.3,4.9,0.7c0.6,0.3,1,0.9,1.5,1.6c0.6,0.9,0.6,2.4,0.6,3.2C27.9,175.3,27.9,176.7,27.3,177.6z"></path>		<g>			<path class="st0" d="M106.8,190.8H106c-0.2,0.6-0.4,1.1-0.7,1.3c-0.3,0.2-0.7,0.4-1.2,0.4H81.6v-9.6h14.2c0.5,0,0.9,0.1,1.2,0.4    c0.3,0.2,0.5,0.7,0.7,1.3h0.8v-8.9h-0.8c-0.2,0.6-0.4,1-0.7,1.3c-0.3,0.2-0.7,0.4-1.2,0.4H81.6v-8.3h21.9c0.5,0,0.9,0.1,1.2,0.4    c0.3,0.2,0.5,0.7,0.7,1.3h0.8v-9.1h-0.8c-0.2,0.6-0.4,1-0.7,1.3c-0.3,0.2-0.7,0.4-1.2,0.4H72.3v0.8c0.6,0.2,1,0.4,1.3,0.7    c0.2,0.3,0.4,0.7,0.4,1.2v29.7c0,0.5-0.1,0.9-0.4,1.2c-0.2,0.3-0.7,0.5-1.3,0.7v0.8h6.8h25h2.7V190.8z"></path>		</g>		<g>			<path class="st0" d="M201.1,190.8h-0.8c-0.2,0.6-0.4,1.1-0.7,1.3c-0.3,0.2-0.7,0.4-1.2,0.4h-22.6v-9.6h14.2    c0.5,0,0.9,0.1,1.2,0.4c0.3,0.2,0.5,0.7,0.7,1.3h0.8v-8.9H192c-0.2,0.6-0.4,1-0.7,1.3c-0.3,0.2-0.7,0.4-1.2,0.4h-14.2v-8.3h21.9    c0.5,0,0.9,0.1,1.2,0.4c0.3,0.2,0.5,0.7,0.7,1.3h0.8v-9.1h-0.8c-0.2,0.6-0.4,1-0.7,1.3c-0.3,0.2-0.7,0.4-1.2,0.4h-31.2v0.8    c0.6,0.2,1,0.4,1.3,0.7c0.2,0.3,0.4,0.7,0.4,1.2v29.7c0,0.5-0.1,0.9-0.4,1.2c-0.2,0.3-0.7,0.5-1.3,0.7v0.8h6.8h25h2.7V190.8z"></path>		</g>	</g></g></svg>